<?xml version="1.0" encoding="utf-8"?><!-- Uploaded to: SVG Repo, www.svgrepo.com, Generator: SVG Repo Mixer Tools -->
<svg fill="#000000" width="30px" height="30px" viewBox="0 0 30 30" xmlns="http://www.w3.org/2000/svg"><path d="M18 27c0-1.647-1.345-3-3-3s-3 1.353-3 3 1.345 3 3 3 3-1.353 3-3zm-1 0c0 1.108-.886 2-2 2-1.113 0-2-.892-2-2s.886-2 2-2c1.114 0 2 .892 2 2zm1-12c0-1.647-1.345-3-3-3s-3 1.353-3 3 1.345 3 3 3 3-1.353 3-3zm-1 0c0 1.108-.886 2-2 2-1.113 0-2-.892-2-2s.886-2 2-2c1.114 0 2 .892 2 2zm1-12c0-1.647-1.345-3-3-3s-3 1.353-3 3 1.345 3 3 3 3-1.353 3-3zm-1 0c0 1.108-.886 2-2 2-1.113 0-2-.892-2-2s.886-2 2-2c1.114 0 2 .892 2 2z"/></svg>